# xmcd
#
# Track frame offsets:
#       150
#       8899
#       23942
#       39934
#       51893
#       69561
#       80719
#       89927
#       105267
#       123326
#
# Disc length: 1811 seconds
#
#
# Revision: 0
# Processed by: cddbd v1.5.1PL0 Copyright (c) Steve Scherf et al.
# Submitted via: Visual Ripper tool of Visual MP3 v4.18
#
DISCID=7e07110a
DTITLE=Alamo Suite - Alamo Suite
DYEAR=1998
DGENRE=Blues
TTITLE0=Cliffhanger
TTITLE1=Fellini
TTITLE2=Lucky 7s
TTITLE3=Run Dont Walk
TTITLE4=Warrior
TTITLE5=Graciela
TTITLE6=Starshine
TTITLE7=Twilight
TTITLE8=Alamo Suite
TTITLE9=Blue Northern
EXTD=
EXTT0=
EXTT1=
EXTT2=
EXTT3=
EXTT4=
EXTT5=
EXTT6=
EXTT7=
EXTT8=
EXTT9=
PLAYORDER=
